{"title":"Toy Story 3 {2010} cam by blondie","uid":5639180,"size":2132504312,"categoryP":"video","categoryS":"movies","magnet":"?xt=urn:btih:928d72dd4c86a86d1464415c22a0809929ee9119&amp;dn=Toy+Story+3+%7B2010%7D+cam+by+blondie&amp;tr=udp%3A%2F%2Ftracker.openbittorrent.com%3A80&amp;tr=udp%3A%2F%2Fopen.demonii.com%3A1337&amp;tr=udp%3A%2F%2Ftracker.coppersurfer.tk%3A6969&amp;tr=udp%3A%2F%2Fexodus.desync.com%3A6969","seeders":0,"leechers":2,"uploader":"hiest","files":4,"time":1277024410,"description":"plot ... Woody, Buzz, and the rest of their toy-box friends are dumped in a day-care center after their owner, Andy, departs for collage\ni did the best i could ,enjoy please comment and help seed\nvideo\nFormat : AVI\nFormat/Info : Audio Video Interleave\nFile size : 1.98 GiB\nDuration : 1h 34mn\nOverall bit rate : 3019 Kbps\nWriting library : VirtualDub build 32817/release\n\nVideo\nFormat : MPEG-4 Visual\nFormat profile : Simple@L1\nFormat settings, BVOP : No\nFormat settings, QPel : No\nFormat settings, GMC : No warppoints\nFormat settings, Matrix : Default\nCodec ID : XVID\nCodec ID/Hint : XviD\nDuration : 1h 34mn\nBit rate : 2882 Kbps\nWidth : 704 pixels\nHeight : 352 pixels\nDisplay aspect ratio : 2.000\nFrame rate : 25.000 fps\nResolution : 8 bits\nColorimetry : 4:2:0\nScan type : Progressive\nBits/(Pixel*Frame) : 0.465\nStream size : 1.89 GiB (95%)\nWriting library : Lavc51.64.0\naudio\nFormat : MPEG Audio\nFormat version : Version 1\nFormat profile : Layer 3\nCodec ID : 55\nCodec ID/Hint : MP3\nDuration : 1h 34mn\nBit rate mode : Constant\nBit rate : 128 Kbps\nChannel(s) : 2 channels\nSampling rate : 44.1 KHz\nResolution : 16 bits\nStream size : 86.2 MiB (4%)\nAlignment : Split accross interleaves\nInterleave, duration : 40 ms (1.00 video frame)\nInterleave, preload durati\n\n\n\nScreens\n &lt;a href=&quot;\nhttp://postimg.com/image/17000/16674.jpg&quot; rel=&quot;nofollow&quot; target=&quot;_NEW&quot;&gt;\nhttp://postimg.com/image/17000/16674.jpg&lt;/a&gt;","torrent":{"xt":"urn:btih:928d72dd4c86a86d1464415c22a0809929ee9119","amp;dn":"Toy+Story+3+%7B2010%7D+cam+by+blondie","amp;tr":["udp%3A%2F%2Ftracker.openbittorrent.com%3A80","udp%3A%2F%2Fopen.demonii.com%3A1337","udp%3A%2F%2Ftracker.coppersurfer.tk%3A6969","udp%3A%2F%2Fexodus.desync.com%3A6969"],"infoHash":"928d72dd4c86a86d1464415c22a0809929ee9119","infoHashBuffer":{"type":"Buffer","data":[146,141,114,221,76,134,168,109,20,100,65,92,34,160,128,153,41,238,145,25]},"announce":[],"urlList":[]}}